HIERARCHY
ROOT Bip001_Pelvis
{
  OFFSET 33.2923 95.8902 -28.781
  CHANNELS 6 Xposition Yposition Zposition Zrotation Xrotation Yrotation
  JOINT Bip001_Spine
  {
    OFFSET 1.4188e-005 10.2191 -0.0116013
    CHANNELS 3 Zrotation Xrotation Yrotation
    JOINT Bip001_L_Thigh
    {
      OFFSET 11.0458 -10.2192 0.0116197
      CHANNELS 3 Zrotation Xrotation Yrotation
      JOINT Bip001_L_Calf
      {
        OFFSET -0.707118 -44.0221 0.360014
        CHANNELS 3 Zrotation Xrotation Yrotation
        JOINT Bip001_L_Foot
        {
          OFFSET -0.651902 -40.5938 -3.56146
          CHANNELS 3 Zrotation Xrotation Yrotation
          JOINT Bip001_L_Toe0
          {
            OFFSET 0.0530839 -10.2181 13.1504
            CHANNELS 3 Zrotation Xrotation Yrotation
            End Site
            {
              OFFSET -1.02532e-005 0 7.55606
            }
          }
        }
      }
    }
    JOINT Bip001_R_Thigh
    {
      OFFSET -11.0458 -10.2191 0.0115893
      CHANNELS 3 Zrotation Xrotation Yrotation
      JOINT Bip001_R_Calf
      {
        OFFSET 0.706994 -44.0221 0.35984
        CHANNELS 3 Zrotation Xrotation Yrotation
        JOINT Bip001_R_Foot
        {
          OFFSET 0.651786 -40.5938 -3.5613
          CHANNELS 3 Zrotation Xrotation Yrotation
          JOINT Bip001_R_Toe0
          {
            OFFSET -0.0531479 -10.2181 13.1504
            CHANNELS 3 Zrotation Xrotation Yrotation
            End Site
            {
              OFFSET -1.02894e-005 0 7.55606
            }
          }
        }
      }
    }
    JOINT Bip001_Spine1
    {
      OFFSET 1.87041e-005 14.5736 1.08638
      CHANNELS 3 Zrotation Xrotation Yrotation
      JOINT Bip001_Spine2
      {
        OFFSET 2.24614e-005 14.5058 -1.69078
        CHANNELS 3 Zrotation Xrotation Yrotation
        JOINT Bip001_Neck
        {
          OFFSET 2.20278e-005 15.3945 -0.489414
          CHANNELS 3 Zrotation Xrotation Yrotation
          JOINT Bip001_L_Clavicle
          {
            OFFSET 6.06036 -0.000579998 0.00836775
            CHANNELS 3 Zrotation Xrotation Yrotation
            JOINT Bip001_L_UpperArm
            {
              OFFSET 11.5509 -0.0600302 0.00193952
              CHANNELS 3 Zrotation Xrotation Yrotation
              JOINT Bip001_L_Forearm
              {
                OFFSET 25.9523 0.0806089 -2.15551
                CHANNELS 3 Zrotation Xrotation Yrotation
                JOINT Bip001_L_Hand
                {
                  OFFSET 32.2476 0.153767 1.63968
                  CHANNELS 3 Zrotation Xrotation Yrotation
                  JOINT Bip001_L_Finger0
                  {
                    OFFSET 6.04639 -2.20976 5.90322
                    CHANNELS 3 Zrotation Xrotation Yrotation
                    End Site
                    {
                      OFFSET 4.22376 -1.43895 0.606486
                    }
                  }
                  JOINT Bip001_L_Finger1
                  {
                    OFFSET 11.0826 -0.704819 -0.198153
                    CHANNELS 3 Zrotation Xrotation Yrotation
                    End Site
                    {
                      OFFSET 6.20028 -0.397518 -0.0787166
                    }
                  }
                }
              }
            }
          }
          JOINT Bip001_R_Clavicle
          {
            OFFSET -6.06036 -0.000563197 0.00835105
            CHANNELS 3 Zrotation Xrotation Yrotation
            JOINT Bip001_R_UpperArm
            {
              OFFSET -11.5509 -0.0599978 0.00190698
              CHANNELS 3 Zrotation Xrotation Yrotation
              JOINT Bip001_R_Forearm
              {
                OFFSET -25.9523 0.080682 -2.1559
                CHANNELS 3 Zrotation Xrotation Yrotation
                JOINT Bip001_R_Hand
                {
                  OFFSET -32.2476 0.153858 1.63991
                  CHANNELS 3 Zrotation Xrotation Yrotation
                  JOINT Bip001_R_Finger0
                  {
                    OFFSET -6.04641 -2.20974 5.90321
                    CHANNELS 3 Zrotation Xrotation Yrotation
                    End Site
                    {
                      OFFSET -4.22376 -1.43894 0.606474
                    }
                  }
                  JOINT Bip001_R_Finger1
                  {
                    OFFSET -11.0826 -0.704789 -0.198184
                    CHANNELS 3 Zrotation Xrotation Yrotation
                    End Site
                    {
                      OFFSET -6.20028 -0.397501 -0.0787338
                    }
                  }
                }
              }
            }
          }
          JOINT Bip001_Head
          {
            OFFSET 1.09673e-005 11.2744 2.05948
            CHANNELS 3 Zrotation Xrotation Yrotation
            End Site
            {
              OFFSET 2.89576e-005 20.8808 -2.77728e-005
            }
          }
        }
      }
    }
  }
}
MOTION
Frames:	9
Frame Time:	0.04
32.7168 95.8786 -28.9906 0.012237 -1.36613 -1.63643 -0.2285 2.45441 -0.447634 5.07746 -1.9581 7.27575 -0.387971 7.03138 -9.93642 6.43364 -0.679919 -0.278041 -2.83724 -5.89042 4.95585 -2.98974 -3.58521 -0.220194 0.302778 11.0317 0.166968 -4.80902 -9.72315 4.22466 1.9392 -6.7916 2.22124 -0.438719 4.91054 -0.888328 -0.438624 4.91054 -0.88749 -2.76185 -2.25108 -1.27974 -21.8889 4.20021 -2.87141 -49.8924 40.9379 -0.400138 13.0287 1.98058 -24.4723 7.44685 1.1731 -2.35149 9.54166e-015 3.18055e-015 -3.18055e-015 9.54166e-015 0 -3.18055e-015 18.6043 9.80426 28.2086 55.3534 -23.1938 47.378 -48.7488 -5.07475 75.312 -37.9255 12.5504 2.04705 -2.20695e-032 -1.59028e-015 -7.95139e-016 -1.59028e-015 -7.95139e-016 2.78299e-015 4.61285 11.6473 -3.43479 
32.6724 95.8789 -29.0289 0.147507 -1.30232 -1.4487 -0.289464 2.42088 -0.492944 5.02909 -1.996 7.10038 -0.389047 6.90047 -9.89991 6.40789 -0.543505 -0.295872 -2.84271 -5.8966 4.97333 -3.04166 -3.72194 -0.390758 0.304639 11.2643 0.159171 -4.82227 -9.84715 4.26479 1.8747 -6.77774 2.40949 -0.558792 4.84418 -0.97494 -0.558792 4.84419 -0.97494 -2.46344 -2.01699 -1.40935 -22.0066 3.89287 -2.75936 -50.1091 39.4084 -0.767883 13.0708 3.22406 -24.1897 7.41361 1.16491 -2.59456 -3.18055e-015 6.36111e-015 -0 -6.36111e-015 3.18056e-015 -0 20.2908 10.0735 27.7306 51.8668 -22.8459 42.6613 -46.6623 -5.43907 75.6534 -35.9978 12.2887 1.91374 -1.32417e-031 -2.38542e-015 -3.18055e-015 3.18055e-015 -1.59028e-015 -5.96354e-015 4.48784 11.5709 -3.43816 
32.621 95.8724 -29.0448 0.319354 -1.23154 -1.15039 -0.340338 2.39931 -0.529367 4.92271 -2.00697 6.86253 -0.357866 6.6539 -9.87407 6.24262 -0.448361 -0.294239 -2.83582 -5.84788 4.96497 -3.12361 -3.87792 -0.731536 0.264994 11.5657 0.23319 -4.86869 -10.0284 4.28101 1.87522 -6.75817 2.39642 -0.6591 4.8187 -1.04579 -0.659101 4.81871 -1.04579 -2.47442 -2.07785 -1.4877 -21.9769 3.85766 -2.46753 -50.0156 39.6049 -1.05827 13.0239 2.96668 -24.193 7.541 1.08099 -2.64743 -6.36111e-015 -9.54166e-015 3.18055e-015 7.06225e-031 -1.27222e-014 3.18055e-015 22.7545 10.6204 26.6889 48.007 -22.3 36.4319 -44.6 -5.07216 78.4441 -34.7285 12.8425 1.39313 2.20695e-032 -7.95139e-016 1.59028e-015 -3.18055e-015 7.95139e-016 1.98785e-015 4.54068 11.6242 -3.54407 
32.5152 95.8557 -29.0473 0.286763 -1.13723 -0.774041 -0.365158 2.40035 -0.553012 5.11936 -2.2924 6.86981 -0.420757 6.93699 -10.1399 6.30421 -0.565633 -0.281256 -2.7746 -5.81951 4.92683 -2.94048 -3.9309 -1.07381 0.148568 11.6443 0.320635 -4.9733 -10.098 4.19518 1.88822 -6.80056 2.41145 -0.707825 4.80675 -1.09238 -0.707911 4.80675 -1.09225 -2.16922 -1.95065 -1.60167 -22.1157 3.67019 -2.37269 -50.0604 40.5545 -0.99292 13.2496 2.08509 -24.5101 7.68875 1.08416 -2.64067 -0 -6.36111e-015 -0 -3.18055e-015 -6.36111e-015 1.59028e-015 24.7829 10.7581 25.2403 44.0349 -20.247 29.0228 -43.6805 -4.38135 81.4281 -32.8315 12.3467 1.19902 -9.54166e-015 -7.95139e-016 5.56597e-015 -9.54166e-015 0 5.56597e-015 4.18107 11.3981 -3.45034 
32.4204 95.8229 -29.0466 0.275744 -1.04164 -0.325993 -0.373698 2.4023 -0.56039 5.29278 -2.6367 7.28924 -0.45251 7.28475 -11.0173 6.27677 -0.669169 -0.282045 -2.82868 -5.87688 4.91162 -2.78799 -4.05212 -1.54295 -0.019611 11.8618 0.33885 -5.03846 -10.2463 4.2189 1.91982 -6.8692 2.39927 -0.725158 4.81242 -1.09995 -0.725157 4.81242 -1.09995 -2.03103 -2.05466 -1.77709 -22.1332 3.74421 -2.35116 -50.0977 40.4221 -0.899737 13.3056 2.32743 -25.0282 7.99409 1.00842 -2.74749 0 6.36111e-015 -0 -3.18055e-015 3.18056e-015 -1.59028e-015 27.0245 11.0282 23.5035 38.5533 -15.1157 20.2451 -42.6254 -5.48196 81.6714 -32.7188 11.6135 2.04426 3.18055e-015 2.38542e-015 1.59028e-015 -3.31043e-032 2.38542e-015 7.95139e-016 3.79489 11.4275 -3.45407 
32.2637 95.7964 -29.0621 0.0540071 -0.874636 0.122359 -0.335125 2.40926 -0.562613 5.73685 -3.14452 7.15821 -0.732667 7.79678 -11.268 6.89718 -0.491971 -0.320977 -2.57802 -6.16158 4.72408 -2.35313 -4.1342 -1.68584 -0.240093 11.8099 0.624829 -5.2878 -10.1501 3.70705 1.94685 -6.95657 2.42927 -0.647046 4.82165 -1.11266 -0.647214 4.82166 -1.11264 -1.83805 -2.03085 -1.90259 -22.2511 3.67386 -2.27597 -50.006 40.388 -1.04323 13.3684 2.44448 -25.2139 8.15318 0.937643 -2.81999 6.36111e-015 3.18055e-015 -3.18055e-015 9.54166e-015 0 -4.77083e-015 28.4747 10.9942 22.0698 35.1126 -8.55899 11.5074 -42.9888 -6.08916 81.6423 -31.5669 10.5874 2.45646 9.54166e-015 -1.19271e-015 1.59028e-015 6.36111e-015 0 1.59028e-015 3.20506 11.1863 -3.33604 
32.3065 95.7899 -28.9378 0.272113 -1.02997 0.288272 -0.363592 2.48477 -0.52577 5.48984 -2.87609 7.21682 -0.646929 7.49759 -11.5115 6.53708 -0.627647 -0.296631 -2.69982 -6.02658 4.77934 -2.58858 -4.03849 -2.22745 -0.30258 12.0264 0.692516 -5.26338 -10.3884 3.92143 1.96451 -7.02388 2.45009 -0.706875 4.97272 -1.03682 -0.706125 4.97273 -1.03694 -2.16239 -2.33601 -1.85011 -22.191 3.92992 -1.98198 -49.5684 40.2741 -1.47275 13.0669 2.22446 -25.1355 8.07647 1.38618 -2.61108 -8.82781e-032 -3.18055e-015 -1.59028e-015 -0 0 1.59028e-015 29.5697 11.2155 21.216 34.2642 -2.00973 3.48138 -42.8751 -5.88779 79.0422 -28.9382 9.55426 3.2393 6.36111e-015 3.97569e-015 7.95139e-016 6.36111e-015 4.77083e-015 7.95139e-016 2.96107 11.3895 -3.29001 
32.2977 95.7939 -28.8758 0.193083 -0.983161 0.355579 -0.328507 2.52772 -0.468521 5.56571 -3.02222 7.04461 -0.677727 7.67186 -11.3839 6.47503 -0.83223 -0.281847 -2.72624 -5.90329 4.81668 -2.52625 -3.98248 -2.2747 -0.302459 11.8328 0.659578 -5.28704 -10.3073 3.85186 1.96983 -7.06163 2.48507 -0.639183 5.05802 -0.923588 -0.637842 5.05803 -0.923666 -2.32177 -2.4516 -1.80323 -22.0807 3.98292 -1.72338 -49.4274 40.2015 -1.81282 13.1318 2.26559 -25.0277 7.76041 1.22756 -2.44252 -9.54166e-015 0 3.18055e-015 -1.27222e-014 -3.18056e-015 6.36111e-015 30.1764 11.2681 20.7097 34.8336 4.93885 -3.50716 -41.9034 -5.11799 74.2795 -27.0277 9.59199 2.61846 -6.36111e-015 -1.81391e-015 -0 -4.77083e-015 -2.06239e-015 -0 2.55431 11.1639 -3.15157 
32.3322 95.8092 -28.8279 0.187347 -0.937979 0.309568 -0.322827 2.55206 -0.395912 5.54722 -3.07405 6.62528 -0.688445 7.72087 -10.9438 6.06081 -1.14435 -0.24331 -2.8738 -5.61161 4.96911 -2.56846 -3.93336 -2.19843 -0.237622 11.6406 0.597201 -5.29149 -10.2319 3.78575 1.97268 -7.08888 2.50396 -0.62587 5.10623 -0.778707 -0.626692 5.10624 -0.778693 -2.19746 -2.39523 -1.85574 -22.2055 3.86786 -1.57675 -49.507 39.8981 -1.80281 13.1853 2.47551 -25.07 7.9846 0.967079 -2.47174 5.29669e-031 9.54166e-015 -3.18055e-015 1.76556e-031 6.36111e-015 -1.59028e-015 30.5543 11.1054 20.0418 36.1698 11.9882 -8.01946 -40.816 -3.62599 67.2108 -22.1859 9.69655 1.96208 1.59028e-015 -6.4605e-016 -0 1.59028e-015 3.42904e-015 3.97569e-016 1.97036 10.9249 -2.98335 
